<?xml version="1.0" encoding="UTF-8" standalone="no"?>
<svg width="23px" height="19px" viewBox="0 0 23 19" version="1.1" xmlns="http://www.w3.org/2000/svg" xmlns:xlink="http://www.w3.org/1999/xlink">
    <!-- Generator: Sketch 42 (36781) - http://www.bohemiancoding.com/sketch -->
    <title>“</title>
    <desc>Created with Sketch.</desc>
    <defs></defs>
    <g id="Welcome-v2" stroke="none" stroke-width="1" fill="none" fill-rule="evenodd">
        <g id="Desktop" transform="translate(-543.000000, -1216.000000)" fill="#AC1F23">
            <path d="M552.8438,1229.35125 C552.8438,1230.83926 552.387805,1232.05125 551.4758,1232.98725 C550.563795,1233.92325 549.411807,1234.39125 548.0198,1234.39125 C546.675793,1234.39125 545.535805,1233.93525 544.5998,1233.02325 C543.663795,1232.11125 543.1958,1230.88726 543.1958,1229.35125 C543.1958,1228.63125 543.303799,1227.98325 543.5198,1227.40725 C543.735801,1226.83125 544.059798,1226.13525 544.4918,1225.31925 L549.0278,1216.60725 L553.7078,1216.60725 L550.6838,1225.17525 C552.123807,1226.08725 552.8438,1227.47924 552.8438,1229.35125 Z M564.2918,1229.35125 C564.2918,1230.83926 563.835805,1232.05125 562.9238,1232.98725 C562.011795,1233.92325 560.859807,1234.39125 559.4678,1234.39125 C558.123793,1234.39125 556.983805,1233.93525 556.0478,1233.02325 C555.111795,1232.11125 554.6438,1230.88726 554.6438,1229.35125 C554.6438,1228.63125 554.751799,1227.98325 554.9678,1227.40725 C555.183801,1226.83125 555.507798,1226.13525 555.9398,1225.31925 L560.4758,1216.60725 L565.1558,1216.60725 L562.1318,1225.17525 C563.571807,1226.08725 564.2918,1227.47924 564.2918,1229.35125 Z" id="“"></path>
        </g>
    </g>
</svg>