<?xml version="1.0" encoding="UTF-8" standalone="no"?>
<svg width="16px" height="17px" viewBox="0 0 16 17" version="1.1" xmlns="http://www.w3.org/2000/svg" xmlns:xlink="http://www.w3.org/1999/xlink">
    <!-- Generator: Sketch 42 (36781) - http://www.bohemiancoding.com/sketch -->
    <title>facebook-official - FontAwesome</title>
    <desc>Created with Sketch.</desc>
    <defs></defs>
    <g id="Welcome-v2" stroke="none" stroke-width="1" fill="none" fill-rule="evenodd">
        <g id="Desktop" transform="translate(-965.000000, -28.000000)" fill="#AFAFAF">
            <g id="Navigation" transform="translate(381.000000, 28.000000)">
                <path d="M598.574777,0.857142857 C598.809153,0.857142857 599.010044,0.940847377 599.177455,1.10825893 C599.344867,1.27567048 599.428571,1.47656133 599.428571,1.7109375 L599.428571,15.4319196 C599.428571,15.6662958 599.344867,15.8671867 599.177455,16.0345982 C599.010044,16.2020098 598.809153,16.2857143 598.574777,16.2857143 L594.647321,16.2857143 L594.647321,10.3091518 L596.646205,10.3091518 L596.947545,7.97879464 L594.647321,7.97879464 L594.647321,6.4921875 C594.647321,6.11718563 594.726004,5.83593844 594.883371,5.6484375 C595.040737,5.46093656 595.347096,5.3671875 595.802455,5.3671875 L597.027902,5.35714286 L597.027902,3.27790179 C596.606025,3.21763363 596.010048,3.1875 595.239955,3.1875 C594.329237,3.1875 593.601007,3.45535446 593.055246,3.99107143 C592.509484,4.52678839 592.236607,5.28347725 592.236607,6.26116071 L592.236607,7.97879464 L590.227679,7.97879464 L590.227679,10.3091518 L592.236607,10.3091518 L592.236607,16.2857143 L584.853795,16.2857143 C584.619418,16.2857143 584.418528,16.2020098 584.251116,16.0345982 C584.083705,15.8671867 584,15.6662958 584,15.4319196 L584,1.7109375 C584,1.47656133 584.083705,1.27567048 584.251116,1.10825893 C584.418528,0.940847377 584.619418,0.857142857 584.853795,0.857142857 L598.574777,0.857142857 Z" id="facebook-official---FontAwesome"></path>
            </g>
        </g>
    </g>
</svg>